<svg xmlns="http://www.w3.org/2000/svg" width="50" height="50" viewBox="0 0 50 50"><defs><style>.a{fill:none;}.b{fill:#fff;}</style></defs><rect class="a" width="50" height="50"/><g transform="translate(12)"><path class="b" d="M77.509,26.63H82.99V49.194A.806.806,0,0,0,83.8,50H93.09a.806.806,0,0,0,.806-.806V26.736h6.3a.807.807,0,0,0,.8-.714l.957-8.307a.806.806,0,0,0-.8-.9H93.9V11.609c0-1.57.845-2.366,2.512-2.366h4.745a.806.806,0,0,0,.806-.806V.812a.806.806,0,0,0-.806-.806h-6.54c-.046,0-.149-.006-.3-.006a12.531,12.531,0,0,0-8.194,3.089,8.593,8.593,0,0,0-2.857,7.638v6.089H77.509a.806.806,0,0,0-.806.806v8.2A.806.806,0,0,0,77.509,26.63Z" transform="translate(-76.703)"/></g></svg>