<svg xmlns="http://www.w3.org/2000/svg" width="32.771" height="50" viewBox="0 0 32.771 50"><defs><style>.a{fill:#fff;}</style></defs><g transform="translate(-84.424)"><path class="a" d="M100.809,0A16.4,16.4,0,0,0,84.424,16.375c0,8.678,14.891,32.158,15.525,33.153a1.02,1.02,0,0,0,1.721,0c.634-1,15.525-24.476,15.525-33.153A16.4,16.4,0,0,0,100.809,0Zm0,47.054c-1.348-2.18-4.083-6.693-6.791-11.693-4.942-9.124-7.554-15.69-7.554-18.986a14.344,14.344,0,0,1,28.689,0c0,3.3-2.612,9.862-7.554,18.986C104.892,40.361,102.157,44.874,100.809,47.054Z" transform="translate(0)"/><path class="a" d="M176.8,76.071a7.555,7.555,0,1,0,7.763,7.552A7.669,7.669,0,0,0,176.8,76.071Zm0,13.06a5.512,5.512,0,1,1,5.719-5.508A5.623,5.623,0,0,1,176.8,89.131Z" transform="translate(-75.994 -68.314)"/></g></svg>