<svg xmlns="http://www.w3.org/2000/svg" width="25" height="25" viewBox="0 0 25 25"><defs><style>.a{opacity:0.8;}.b{fill:#fff;}</style></defs><g class="a" transform="translate(-52)"><g transform="translate(52)"><path class="b" d="M25,12.5A12.5,12.5,0,1,0,12.5,25,12.514,12.514,0,0,0,25,12.5Zm-23.25,0A10.75,10.75,0,1,1,12.5,23.25,10.761,10.761,0,0,1,1.75,12.5Z"/><path class="b" d="M206.08,159.733l-3.7-3.7a.882.882,0,0,0-1.247,1.247l3.079,3.079-3.079,3.079a.88.88,0,1,0,1.242,1.247l3.7-3.7A.884.884,0,0,0,206.08,159.733Z" transform="translate(-190.643 -147.854)"/></g></g></svg>