<svg xmlns="http://www.w3.org/2000/svg" width="78.646" height="50" viewBox="0 0 78.646 50"><defs><style>.a{fill:#fff;}</style></defs><g transform="translate(285.646 -91.245)"><g transform="translate(-285.646 91.245)"><path class="a" d="M71.981,93.245H6.665A6.672,6.672,0,0,0,0,99.91v36.671a6.672,6.672,0,0,0,6.665,6.664H71.981a6.672,6.672,0,0,0,6.665-6.664V99.91A6.672,6.672,0,0,0,71.981,93.245Zm-3.016,2.512L39.323,120.622,9.68,95.757Zm-63.1.078,32.651,27.388a1.256,1.256,0,0,0,1.614,0L72.782,95.835a4.133,4.133,0,0,1,1.632.712L39.323,125.981,4.233,96.547A4.133,4.133,0,0,1,5.865,95.835ZM2.512,136.581V99.91a4.134,4.134,0,0,1,.223-1.34l21.842,18.322-21.6,21.6A4.127,4.127,0,0,1,2.512,136.581Zm69.469,4.152H6.665a4.126,4.126,0,0,1-1.909-.467L26.51,118.512l12.006,10.071a1.256,1.256,0,0,0,1.614,0l12.006-10.071,21.754,21.754A4.126,4.126,0,0,1,71.981,140.733Zm4.152-4.152a4.126,4.126,0,0,1-.467,1.909l-21.6-21.6L75.911,98.57a4.131,4.131,0,0,1,.223,1.34Z" transform="translate(0 -93.245)"/></g></g></svg>