<svg xmlns="http://www.w3.org/2000/svg" xmlns:xlink="http://www.w3.org/1999/xlink" width="99.594" height="100" viewBox="0 0 99.594 100"><defs><style>.a{opacity:0.8;}.b{fill:url(#a);}</style><linearGradient id="a" x1="1.322" y1="0.628" x2="-0.341" y2="0.617" gradientUnits="objectBoundingBox"><stop offset="0" stop-color="#c69100"/><stop offset="1" stop-color="#cb00ac"/></linearGradient></defs><g class="a" transform="translate(-1.217)"><path class="b" d="M94.246,43.047a22.149,22.149,0,0,0,17.244-40.8,22.149,22.149,0,0,0-17.244,40.8Zm23.568-20.4A14.946,14.946,0,1,1,102.868,7.7,14.946,14.946,0,0,1,117.814,22.645Z" transform="translate(-66.146 -0.416)"/><path class="b" d="M102.451,44.458A22.233,22.233,0,0,1,93.8,1.75a22.233,22.233,0,0,1,17.309,40.958A22.1,22.1,0,0,1,102.451,44.458Zm0-44.29a22.065,22.065,0,0,0-8.589,42.385A22.065,22.065,0,0,0,111.04,1.9,21.929,21.929,0,0,0,102.451.168Zm0,37.091a15.03,15.03,0,1,1,15.03-15.03A15.047,15.047,0,0,1,102.451,37.259Zm0-29.892a14.862,14.862,0,1,0,14.862,14.862A14.879,14.879,0,0,0,102.451,7.367Z" transform="translate(-65.729)"/><path class="b" d="M94.325,299.333a23.168,23.168,0,0,0-28.49-3.5q-.574-.662-1.2-1.289a25.425,25.425,0,0,0-18.074-7.533H27.278A25.425,25.425,0,0,0,9.2,294.548a25.74,25.74,0,0,0-7.486,18.185v13.107a9.751,9.751,0,0,0,9.71,9.77H62.415a9.641,9.641,0,0,0,2.412-.305,23.262,23.262,0,0,0,34.484-10.29,23.5,23.5,0,0,0-4.986-25.683Zm-23.4,31.211a16.12,16.12,0,0,1-3.044-1.908,16.268,16.268,0,0,1,1.86-26.757,15.973,15.973,0,0,1,8.124-2.208,16.225,16.225,0,0,1,0,32.449A15.98,15.98,0,0,1,70.923,330.544Zm-59.5-2.132a2.563,2.563,0,0,1-2.555-2.571V312.734a18.463,18.463,0,0,1,18.406-18.519H46.565a18.311,18.311,0,0,1,13.786,6.25,23.519,23.519,0,0,0-2.167,27.947Z" transform="translate(-0.417 -239.403)"/><path class="b" d="M77.447,338.987a23.228,23.228,0,0,1-13.052-4.007,9.737,9.737,0,0,1-2.4.3H11.01a9.835,9.835,0,0,1-9.793-9.854V312.318a25.8,25.8,0,0,1,15.66-23.771,25.353,25.353,0,0,1,9.984-2.031H46.148a25.508,25.508,0,0,1,18.133,7.557c.391.393.779.81,1.154,1.24a23.412,23.412,0,0,1,2.916-1.49,23.255,23.255,0,0,1,25.617,5.035,23.557,23.557,0,0,1-7.424,38.279A23.105,23.105,0,0,1,77.447,338.987ZM64.426,334.8l.031.021a23.373,23.373,0,1,0,1-39.327l-.06.036-.046-.053c-.387-.446-.788-.878-1.192-1.285a25.342,25.342,0,0,0-18.015-7.508H26.861a25.343,25.343,0,0,0-18.015,7.508,25.655,25.655,0,0,0-7.462,18.126v13.107a9.667,9.667,0,0,0,9.626,9.686H62a9.56,9.56,0,0,0,2.391-.3Zm13.021-3.011a15.98,15.98,0,0,1-6.977-1.585,16.2,16.2,0,1,1,6.977,1.585Zm0-32.449a15.956,15.956,0,0,0-8.082,2.2,16.177,16.177,0,0,0,1.178,28.517,15.816,15.816,0,0,0,6.9,1.568,16.141,16.141,0,0,0,0-32.281ZM57.918,328.08H11.01a2.65,2.65,0,0,1-2.639-2.655V312.318a18.568,18.568,0,0,1,18.489-18.6H46.148A18.458,18.458,0,0,1,60,299.993l.049.055L60,300.1a23.434,23.434,0,0,0-2.159,27.846Zm-31.057-34.2A18.4,18.4,0,0,0,8.539,312.318v13.107a2.482,2.482,0,0,0,2.472,2.487h46.6a23.59,23.59,0,0,1,2.207-27.862,18.289,18.289,0,0,0-13.674-6.167Z" transform="translate(0 -238.987)"/><path class="b" d="M11.991,0,5.235.012H3.287A3.034,3.034,0,0,0,1.951.324,3.627,3.627,0,0,0,0,3.612,3.627,3.627,0,0,0,1.952,6.9a3.034,3.034,0,0,0,1.335.311H5.24L11.991,7.2a3.454,3.454,0,0,0,3.287-3.6A3.454,3.454,0,0,0,11.991,0Z" transform="matrix(0.616, 0.788, -0.788, 0.616, 70.258, 72.484)"/><path class="b" d="M12.08,7.367l-8.714.012A3.1,3.1,0,0,1,2,7.062,3.719,3.719,0,0,1,0,3.7,3.719,3.719,0,0,1,2,.331,3.1,3.1,0,0,1,3.366.012L12.08,0a3.54,3.54,0,0,1,3.366,3.683A3.54,3.54,0,0,1,12.08,7.367ZM3.366.181a2.955,2.955,0,0,0-1.306.3A3.549,3.549,0,0,0,.154,3.7,3.549,3.549,0,0,0,2.061,6.908a2.958,2.958,0,0,0,1.305.3L12.08,7.2a3.378,3.378,0,0,0,3.213-3.515A3.378,3.378,0,0,0,12.08.168L3.366.181Z" transform="matrix(0.616, 0.788, -0.788, 0.616, 70.273, 72.366)"/><path class="b" d="M19.423,7.2H3.6A3.6,3.6,0,0,1,3.6,0H19.423a3.6,3.6,0,1,1,0,7.2Z" transform="matrix(0.616, -0.788, 0.788, 0.616, 69.9, 84.524)"/><path class="b" d="M19.507,0H3.683a3.683,3.683,0,0,0-1.5,7.048,3.656,3.656,0,0,0,1.5.318H19.507a3.683,3.683,0,0,0,0-7.367ZM3.683,7.2A3.515,3.515,0,0,1,2.255.471a3.489,3.489,0,0,1,1.428-.3H19.507a3.515,3.515,0,1,1,0,7.031H3.683Z" transform="matrix(0.616, -0.788, 0.788, 0.616, 69.782, 84.539)"/></g></svg>