<svg xmlns="http://www.w3.org/2000/svg" width="240.367" height="100" viewBox="0 0 240.367 100"><defs><style>.a{fill:#d10513;}.b{fill:#fff;}</style></defs><g transform="translate(-115 -25)"><path class="a" d="M97.658,158.16h.2c.356,2.581.937,5.043,1.3,7.5h0a15.8,15.8,0,0,0,.749,2.581h0c.312.914.453,1.88.752,2.805h0c.578,1.777,1.227,3.473,1.911,5.161h0c.328.8.471,1.865,1.23,2.275h0c-.5-2.116-1.845-5.117-2.051-8.413h0c-.041-.664.028-1.368,0-2.046h0a19.379,19.379,0,0,1-.137-4.243h0a19.68,19.68,0,0,1,1.018-3.79h0c.446.328.281,1.276.343,1.969h0c.19,2.168.25,5.246.553,7.886h0a43.976,43.976,0,0,0,.887,4.848h0c.187.815.6,1.629.818,2.5h0c.4,1.633.54,3.1,1.436,4.169h0a35.706,35.706,0,0,1-.556-12.582h0a3.891,3.891,0,0,1,.937-2.212h0a9.652,9.652,0,0,1,.278,3.639h0c.05,6.042.312,12.247,2.4,16.442h0c.091.206.456.1.624.232h0c1.561,3.237,3.494,6.71,5.121,10.149h0c.531,1.124,1.3,2.142,1.77,3.259h0c.468,1.106.746,2.315,1.233,3.406h0c.465,1.047,1.105,2.061,1.5,3.108h0a11.986,11.986,0,0,0,.752,1.972h0a37.861,37.861,0,0,1,2.317,4.166h0c.534,1.264,1.034,2.621,1.642,3.864h0c.6,1.22,1.13,2.581,1.774,3.631h0a7.767,7.767,0,0,0,2.111,1.969h0c.843.608,1.461,1.408,2.186,1.817h0c1.3.737,2.7.409,4.5-.077h0a22.478,22.478,0,0,1,2.929-.914h0c1.2-.166,3.082.125,3.681.977h0c1.13.236,2.32.608,2.66,1.744h0c.156.52,0,1.187.206,1.744h0c-.256.664-.462.52-.409,1.213h0c-.706-.048-1.414-.42-2.042-.229h0c-.287.088-.506.417-.752.535h0c-.384.188-.846.184-1.227.369h0c-1.561.8-2.6,2.267-3.747,3.41h0a23.8,23.8,0,0,0,1.839,1.817h0a1.281,1.281,0,0,1,.624.151h0a29.107,29.107,0,0,1,2.932,1.74h0c.144.114.19.347.34.453h0c.219.158.528.147.753.3h0c.674.479,1.283,1.217,1.973,1.74h0c.712.546,1.433,1.043,2.114,1.589h0a22.532,22.532,0,0,0,2.114,1.593h0c.774.479,1.642.737,2.385,1.287h0c.418.3.937.089,1.4.465h0c.44.369.781.914,1.346,1.062h0a8.689,8.689,0,0,1,3.157,1.287h0c.228.129,7.975,1.231,8.58,2.09h0c.075.107.312.1.528.1h0c.259,0,.515,0,.528.151h0c.025.321.515.3.793.17h0a1.642,1.642,0,0,1,.746-.077h0a2.466,2.466,0,0,0,.681-.041h0a68.335,68.335,0,0,1,8.921-1.633v1.652a39.18,39.18,0,0,1-5.845,3.97h0a2.655,2.655,0,0,1-.837.052h0c-.6,0-1.308-.029-1.514.313h0c-.109.181,2,.8,1.839.984h0c-.287.324-1.873-.085-2.186-.173h0a.467.467,0,0,0-.125-.018h0c-1.443,0-1.137.343-.656.911h0c.624.756,1.839.693,1.493.947h0c-1.18.863-3.837.457-4.921.689h0a.191.191,0,0,0-.132.092.262.262,0,0,0-.034.177h0c.109.59,1.171.877.753,1.154h0c-1.408.925-4.793-2.109-5.018-2.112h0c-.365,0-.231.42-.159.848h0c.1.6.091,1.191-1.527.608h0c-2.061-.737-3.185-2.238-3.778-2.293h0c-.247.63-.19.693.381,1.161h0a.474.474,0,0,1-.378.837h0a11.666,11.666,0,0,1-4.093-1.589h0c-.365,2.212-2.982.5-3.95,0h0a5.056,5.056,0,0,1-2.726.837h0c-.381-.052-.69-.505-1.024-.531h0c-.287-.022-.531.247-.884.306h0c-1.1.17-2.651-.247-2.454-1.29h0c-.478-.1-.481.49-.955.686h0a3.294,3.294,0,0,1-2.863-.45h0c-1.633-.155-3.435-.118-4.293-1.132h0a4.26,4.26,0,0,1-3.747-.833h0c-.287-.206-.7-.369-.887-.523h0c-.237-.214-.312-.59-.546-.763h0a5.97,5.97,0,0,1-1.5-2.382h0a1.762,1.762,0,0,1-1.77-1.213h0c-.087-.081-.19-.048-.312,0h0a.7.7,0,0,1-.362,0h0a6.083,6.083,0,0,0-3.207-1.663h0a2.482,2.482,0,0,0-2.045-1.585h0c-.112-1.342,1.446-1.475,2.314-1.98h0c-.877.1-3.522.844-3.881-.446h0a53.224,53.224,0,0,0-5.249.992h0a20,20,0,0,1-1.7,2.212h0a30.946,30.946,0,0,1-3.678,3.948h0c-.518.494-1.277,1.644-1.9,1.744h0c-.674.1-1.3-.531-1.774-.981h0c-.905.155-2.014.3-2.385-.45h0a4.858,4.858,0,0,1-2.317.151h0c-.312,0-.294-.369-.412-.6h0c-.874.07-2.966.439-3.269-.608h0a1.519,1.519,0,0,1-1.7-.6h0c-.565-.1-1.215-.111-1.43-.6h0a4.213,4.213,0,0,1,.337-1.213h0c-.765.391-1.333-1.106-.275-1.135h0a1.705,1.705,0,0,1-1.021-2.05h0c-.109-.369-.5-.4-.624-.756h0c.122-1.279,1.165-1.534,1.7-2.352h0c-.312-.424-.937-.619-1.021-1.132h0c-.212-1.08,1.049-1.386,1.561-1.976h0c-.284-.582-1.149-1.106-1.024-1.817h0c.1-.557.871-.538,1.227-.984h0a4.823,4.823,0,0,1-.955-2.046h0c.781-.689,1.9-.273,2.86-.155h0c3.46.424,7.806.63,11.59.818h0c1.249.063,2.538.155,3.063-.682h0c0-.243-.153-.336-.137-.608h0c-1.624.225-3.25-.066-3.069-1.744h0c.047-.417.624-.774.624-1.209h0c0-.483-.709-.837-.409-1.515h0c-.119-.055-.184.125-.275.3h0c-.087.166-.2.335-.4.306h0a2.525,2.525,0,0,1-.624-1.445h0c-1.29-.077-1.533-2.112-.756-3.027h0c-1.658.6-3.122-.538-2.657-2.271h0c-.665-.453-1.592-1-1.3-2.278h0c-.353-.442-.977-.52-1.29-1.206h0c-.144-.31-.037-.793-.2-1.209h0c-.187-.465-.815-.7-1.024-1.135h0c-.091-.188,0-.369-.069-.6h0c-.231-.7-1-.962-1.093-1.368h0c-.209-.922.468-1.475.749-2.12h0c-.312-.409-.434-.984-.752-1.364h0a10.144,10.144,0,0,1-1.7-.453h0c-.019-.877-1.755-1.633-.412-2.212h0c-.937-.206-1.071-1.287-1.43-2.123h0c0-.424.35-.465.337-.907h0c-.506-.933-2.133-1.895-1.158-3.108h0c-.359-.778-.8-1.475-1.1-2.12h0a4,4,0,0,1,.884-1.519h0c-.29-.678-.905-1.534-.412-2.426h0c-.706-.664-2.186-2.212-.955-3.406h0c-.665-.925-2.289-2.053-1.227-3.558h0c.406-.159,1.118.029,1.43-.229h0c-.137-.737-1.53-1.106-1.911-1.969h0a3.538,3.538,0,0,1-.624-2.123h0a1.384,1.384,0,0,1,2.117-.759h0c.312-.667-.4-.94-.681-1.287h0A8.253,8.253,0,0,1,86.7,177.64h0c1.343-.785,2.011,1.014,3.269,1.062h0a10.025,10.025,0,0,0-1.908-2.949h0c-.54-1.4-2.067-2.094-2.186-3.709h0a23.126,23.126,0,0,1,4.162,3.1h0c1.3,1.106,2.62,2.175,3.887,3.318h0c.269-1.128-.646-1.876-1.165-2.581h0a31.024,31.024,0,0,1-2.932-4.77h0c-.8-1.633-2-3.126-1.914-5.607h0c.512.188.7.737.959,1.209h0c2.9,3.4,5.308,7.351,8.252,10.691h0c.075-1.512-.79-2.474-1.436-3.786h0c-1.414-2.9-3.079-6.035-3.619-9.85h0a5.767,5.767,0,0,1,.134-2.654h0c.74.343.646,1.611,1.23,2.123h0c.937,3.06,2.426,5.53,3.55,8.409h0a50.007,50.007,0,0,0,3.41,5.53h0c.119-1.132-.525-1.965-.884-2.949h0c-1.514-4.1-3.319-10.267-1.992-15.915h0c0-.081.134-.052.137-.151Zm43.673,69.307c.653-.789,2.916-.557,2.863.833h0A6.59,6.59,0,0,0,141.33,227.467Z" transform="translate(29.12 -133.16)"/><path class="b" d="M354.128,239.664H349.2v11.056H345.51V224.93h10.145q6.444,0,6.448,6.448v1.852q0,5.789-4.321,6.373l4.321,11.119h-3.7ZM349.2,228.621v7.366h6.454a2.437,2.437,0,0,0,2.757-2.757v-1.852a2.435,2.435,0,0,0-2.757-2.757Zm31.308,7.366v3.678H369.462v7.369h11.047v3.688H365.774V224.93h14.734v3.691H369.462v7.366Zm13.826-11.056q6.448,0,6.448,6.448v12.9q0,6.448-6.448,6.448H384.2V224.93Zm2.757,6.448a2.435,2.435,0,0,0-2.757-2.757h-6.448v18.422h6.448a2.438,2.438,0,0,0,2.757-2.76v-12.9Zm7.369,19.343V224.93h3.688v12.533l10.129-12.533h4.609l-10.138,12.9,10.138,12.9h-4.609L408.148,238.2v12.521Zm24.882-25.791v25.791h-3.7V224.93Zm20.261,0v3.691h-6.457v22.1h-3.687v-22.1h-6.448V224.93Zm18.422,11.056v3.678H456.963v7.369h11.044v3.688H453.272V224.93h14.734v3.691H456.963v7.366Z" transform="translate(-112.659 -162.327)"/></g></svg>