<svg xmlns="http://www.w3.org/2000/svg" width="39.116" height="42.67" viewBox="0 0 39.116 42.67"><g transform="translate(-21.322 0.001)"><g transform="translate(21.322 -0.001)"><path d="M48.458,12.47l-1.77-1.77L31.976,25.413a4.669,4.669,0,0,0,6.6,6.6l19.759-19.76A7.182,7.182,0,1,0,48.182,2.1L24.157,26.124A9.7,9.7,0,0,0,37.868,39.834L56.845,20.857l-1.77-1.77L36.1,38.065A7.192,7.192,0,0,1,25.927,27.893L49.951,3.869a4.679,4.679,0,0,1,6.617,6.617L36.809,30.246a2.166,2.166,0,1,1-3.064-3.064Z" transform="translate(-21.322 0.001)"/></g></g></svg>