<svg xmlns="http://www.w3.org/2000/svg" width="30" height="30" viewBox="0 0 30 30"><defs><style>.a{opacity:0.8;}.b{fill:#fff;}</style></defs><g class="a" transform="translate(30) rotate(90)"><path class="b" d="M0,15A15,15,0,1,1,15,30,15.016,15.016,0,0,1,0,15Zm27.9,0A12.9,12.9,0,1,0,15,27.9,12.913,12.913,0,0,0,27.9,15Z"/><path class="b" d="M201.185,160.539l4.453-4.453a1.061,1.061,0,0,1,1.5,1.5l-3.706,3.706L207.139,165a1.059,1.059,0,1,1-1.495,1.5l-4.453-4.453A1.064,1.064,0,0,1,201.185,160.539Z" transform="translate(-189.717 -146.286)"/></g></svg>