<svg xmlns="http://www.w3.org/2000/svg" xmlns:xlink="http://www.w3.org/1999/xlink" width="96.907" height="100" viewBox="0 0 96.907 100"><defs><style>.a{opacity:0.8;}.b{fill:url(#a);}</style><linearGradient id="a" x1="1.322" y1="0.628" x2="-0.341" y2="0.617" gradientUnits="objectBoundingBox"><stop offset="0" stop-color="#00c6c6"/><stop offset="1" stop-color="#0f8658"/></linearGradient></defs><g class="a" transform="translate(-6 0.002)"><path class="b" d="M108.091,22.3a3.866,3.866,0,0,0-4.22.841l-86.737,86.9a3.88,3.88,0,0,0,2.738,6.623h86.737a3.876,3.876,0,0,0,3.872-3.88v-86.9A3.88,3.88,0,0,0,108.091,22.3ZM102.737,108.9H29.22l73.517-73.659Z" transform="translate(-7.574 -16.666)"/><path class="b" d="M73.689,10.918l-1.612,5.4a2.425,2.425,0,1,0,4.648,1.386L81.078,3.117A2.425,2.425,0,0,0,78.061.1L63.47,4.452A2.425,2.425,0,0,0,64.857,9.1l5.4-1.612L6.711,71.038a2.425,2.425,0,1,0,3.43,3.43Z" transform="translate(0 0)"/></g></svg>