<svg xmlns="http://www.w3.org/2000/svg" xmlns:xlink="http://www.w3.org/1999/xlink" width="55.318" height="50" viewBox="0 0 55.318 50"><defs><style>.a{fill:url(#a);}</style><linearGradient id="a" x1="0.5" x2="0.5" y2="1" gradientUnits="objectBoundingBox"><stop offset="0" stop-color="#cc30b4"/><stop offset="1" stop-color="#2b0f86"/></linearGradient></defs><path class="a" d="M47.754,43.214a1.742,1.742,0,0,0-1.733,1.751V65.48H3.466v-43H37.653a1.751,1.751,0,0,0,0-3.5H1.733A1.742,1.742,0,0,0,0,20.733v46.5a1.742,1.742,0,0,0,1.733,1.751H47.754a1.742,1.742,0,0,0,1.733-1.751V44.965A1.742,1.742,0,0,0,47.754,43.214Z" transform="translate(0 -18.982)"/><path class="a" d="M143.064,24.105a1.92,1.92,0,0,0-2.715,0L109.08,55.375l-7.769-7.769A1.92,1.92,0,0,0,98.6,50.321l9.126,9.126a1.92,1.92,0,0,0,2.715,0l32.626-32.627A1.919,1.919,0,0,0,143.064,24.105Z" transform="translate(-88.309 -22.843)"/></svg>