<svg xmlns="http://www.w3.org/2000/svg" width="50" height="50" viewBox="0 0 50 50"><defs><style>.a{opacity:0.8;}.b{fill:#fff;}</style></defs><g class="a" transform="translate(-1755 -50)"><path class="b" d="M42.678,7.322A25,25,0,0,0,7.322,42.678,25,25,0,0,0,42.678,7.322ZM25,46.907A21.907,21.907,0,1,1,46.907,25,21.932,21.932,0,0,1,25,46.907Z" transform="translate(1755 50)"/><path class="b" d="M24.591,18.854c-.925-1.749-4.139-3.646-4.28-3.729a2.553,2.553,0,0,0-1.247-.359,1.551,1.551,0,0,0-1.388.774,15.369,15.369,0,0,1-1.194,1.321,1.987,1.987,0,0,1-2.9-.29L8.289,11.277A1.994,1.994,0,0,1,8,8.378a15.521,15.521,0,0,1,1.323-1.2,1.532,1.532,0,0,0,.712-.919,2.278,2.278,0,0,0-.3-1.719c-.08-.136-1.977-3.35-3.726-4.275a2.273,2.273,0,0,0-2.671.4L2.166,1.839A6.391,6.391,0,0,0,.174,8.069a13.179,13.179,0,0,0,3.817,6.022l6.776,6.776c2.648,2.648,5.172,3.991,7.5,3.991h0a6.637,6.637,0,0,0,4.749-2.165l1.169-1.169A2.262,2.262,0,0,0,24.591,18.854Z" transform="translate(1768 62.996)"/></g></svg>