<svg xmlns="http://www.w3.org/2000/svg" width="50" height="50" viewBox="0 0 50 50"><defs><style>.a,.b{fill:#fff;}.b{stroke:#894949;}</style></defs><g transform="translate(0 0)"><path class="a" d="M40,42.941c-.034,0-.069,0-.1-.005a20.878,20.878,0,0,1-11.6-5.283,1,1,0,0,1,1.4-1.425,19.177,19.177,0,0,0,10.4,4.718,1,1,0,0,1-.1,2Z" transform="translate(-2.697 -3.019)"/><path class="a" d="M18,26.941a.994.994,0,0,1-.635-.229c-.229-.188-5.638-4.715-6.359-11.668A1,1,0,1,1,13,14.837c.635,6.12,5.592,10.291,5.642,10.332A1,1,0,0,1,18,26.941Z" transform="translate(-0.944 -1.343)"/><g transform="translate(0 0)"><path class="b" d="M48.572,38.312c-1.754-3.316-8.223-7.106-8.223-7.106-1.464-.834-3.23-.927-4.065.56a33.363,33.363,0,0,1-2.636,2.883c-2.442,1.655-4.7,1.59-6.989-.693l-2.2-2.2L19.23,26.526l-3.185-3.185c-2.284-2.284-2.348-4.546-.693-6.989a33.364,33.364,0,0,1,2.883-2.636c1.487-.835,1.394-2.6.56-4.065,0,0-3.792-6.469-7.106-8.223a3.634,3.634,0,0,0-4.27.642L5.073,4.414C-2.363,11.848,1.3,20.243,8.733,27.677l4.673,4.673,5.228,5.228,3.689,3.689c7.434,7.434,15.829,11.1,23.263,3.66l2.344-2.344A3.634,3.634,0,0,0,48.572,38.312Z" transform="translate(0 0)"/><path class="a" d="M36.76,50a13.251,13.251,0,0,1-2.988-.352c-3.83-.886-7.906-3.468-12.113-7.677L8.029,28.34C3.821,24.133,1.238,20.056.352,16.227c-1.063-4.6.284-8.812,4-12.532L6.708,1.344A4.55,4.55,0,0,1,12.08.536c3.519,1.861,7.334,8.324,7.494,8.6a4.641,4.641,0,0,1,.605,3.459,3.079,3.079,0,0,1-1.433,1.849,31.117,31.117,0,0,0-2.661,2.406c-1.484,2.19-1.309,3.936.586,5.831L27.319,33.326c1.894,1.894,3.637,2.069,5.835.583a31.1,31.1,0,0,0,2.4-2.657,3.084,3.084,0,0,1,1.85-1.433,4.589,4.589,0,0,1,3.449.6c.285.167,6.748,3.982,8.609,7.5h0a4.547,4.547,0,0,1-.808,5.371L46.3,45.641A13.317,13.317,0,0,1,36.76,50ZM9.937,1.856a2.708,2.708,0,0,0-1.919.8L5.667,5.007c-3.283,3.283-4.431,6.816-3.509,10.8C2.964,19.3,5.381,23.072,9.34,27.03L22.97,40.66c3.959,3.959,7.734,6.375,11.22,7.182,3.988.918,7.52-.226,10.8-3.51l2.352-2.352a2.706,2.706,0,0,0,.481-3.193h0c-1.342-2.537-6.157-5.741-7.9-6.763a2.834,2.834,0,0,0-2.026-.417,1.245,1.245,0,0,0-.775.634l-.1.138a27.186,27.186,0,0,1-2.837,3.067c-2.917,1.977-5.672,1.706-8.185-.807L15.361,23.991c-2.512-2.513-2.784-5.267-.807-8.185a27.262,27.262,0,0,1,3.067-2.838l.14-.1a1.248,1.248,0,0,0,.633-.774,2.853,2.853,0,0,0-.424-2.036c-.031-.053-3.7-6.272-6.756-7.888A2.729,2.729,0,0,0,9.937,1.856Z" transform="translate(0 0)"/></g></g></svg>