<svg xmlns="http://www.w3.org/2000/svg" xmlns:xlink="http://www.w3.org/1999/xlink" width="98.604" height="100" viewBox="0 0 98.604 100"><defs><style>.a{opacity:0.8;}.b{fill:url(#a);}</style><linearGradient id="a" x1="1.322" y1="0.628" x2="-0.341" y2="0.617" gradientUnits="objectBoundingBox"><stop offset="0" stop-color="#cc30b4"/><stop offset="1" stop-color="#2b0f86"/></linearGradient></defs><g class="a" transform="translate(0 -1.469)"><path class="b" d="M7.166,46.1A41.621,41.621,0,0,1,33.973,14.284l-.647,1.122a3.267,3.267,0,1,0,5.658,3.268l4.5-7.8a3.267,3.267,0,0,0-1.195-4.463l-7.8-4.5a3.267,3.267,0,1,0-3.268,5.658l.814.47A48.007,48.007,0,0,0,2.889,69.711a3.267,3.267,0,0,0,6.139-2.24A41.427,41.427,0,0,1,7.166,46.1Z" transform="translate(0)"/><path class="b" d="M97.907,179.7a3.267,3.267,0,0,0-4.6.4,41.447,41.447,0,0,1-58.07,5.38h1.051a3.267,3.267,0,1,0,0-6.534h-8.7a3.263,3.263,0,0,0-3.556,2.923v.011c-.009.094-.014.188-.014.282,0,.017,0,.032,0,.049l0,9a3.267,3.267,0,0,0,3.266,3.268h0a3.267,3.267,0,0,0,3.267-3.266V190.08A48,48,0,0,0,98.306,184.3,3.267,3.267,0,0,0,97.907,179.7Z" transform="translate(-13.55 -99.965)"/><path class="b" d="M168.655,68.749a3.267,3.267,0,0,0-4.463-1.2l-1.075.62c.044-.231.1-.46.137-.692a47.986,47.986,0,0,0-38.927-55.592,3.267,3.267,0,0,0-1.134,6.435A41.451,41.451,0,0,1,156.832,66.28l-.479-.829a3.267,3.267,0,0,0-5.66,3.266l4.5,7.8a3.267,3.267,0,0,0,4.463,1.2l7.8-4.5A3.268,3.268,0,0,0,168.655,68.749Z" transform="translate(-70.489 -5.852)"/></g></svg>