<svg xmlns="http://www.w3.org/2000/svg" xmlns:xlink="http://www.w3.org/1999/xlink" width="55.318" height="50" viewBox="0 0 55.318 50"><defs><style>.a{fill:url(#a);}</style><linearGradient id="a" x1="0.5" x2="0.5" y2="1" gradientUnits="objectBoundingBox"><stop offset="0" stop-color="#c69100"/><stop offset="1" stop-color="#cb00ac"/></linearGradient></defs><path class="a" d="M47.7,43.214a1.741,1.741,0,0,0-1.731,1.751V65.48H3.462v-43h34.15a1.751,1.751,0,0,0,0-3.5H1.731A1.741,1.741,0,0,0,0,20.733v46.5a1.741,1.741,0,0,0,1.731,1.751H47.7a1.741,1.741,0,0,0,1.731-1.751V44.965A1.741,1.741,0,0,0,47.7,43.214Z" transform="translate(0 -18.982)"/><path class="a" d="M143.474,24.111a1.937,1.937,0,0,0-2.74,0L109.181,55.664l-7.84-7.84a1.937,1.937,0,1,0-2.74,2.74l9.209,9.209a1.937,1.937,0,0,0,2.74,0L143.474,26.85A1.937,1.937,0,0,0,143.474,24.111Z" transform="translate(-88.723 -22.836)"/></svg>