<svg xmlns="http://www.w3.org/2000/svg" xmlns:xlink="http://www.w3.org/1999/xlink" width="76.039" height="100" viewBox="0 0 76.039 100"><defs><style>.a{opacity:0.8;}.b{fill:url(#a);}</style><linearGradient id="a" x1="1.322" y1="0.628" x2="-0.341" y2="0.617" gradientUnits="objectBoundingBox"><stop offset="0" stop-color="#00c6c6"/><stop offset="1" stop-color="#3e35aa"/></linearGradient></defs><g class="a" transform="translate(-47.044)"><path class="b" d="M122.659,84.669,106.114,59.152a33.339,33.339,0,1,0-42.063-.017L47.489,84.669a2.787,2.787,0,0,0,2.222,4.3l10.108.379,4.461,9.088a2.717,2.717,0,0,0,2.5,1.548A2.763,2.763,0,0,0,69.1,98.712L85.074,74.133l15.953,24.6a2.807,2.807,0,0,0,2.5,1.268,2.708,2.708,0,0,0,2.321-1.548l4.461-9.088,10.108-.379a2.729,2.729,0,0,0,2.354-1.5A2.9,2.9,0,0,0,122.659,84.669Zm-16.611.708-3.029,6.19L86.786,66.576a33.133,33.133,0,0,0,14.7-4.3h.033l13.812,21.287-6.881.263A2.822,2.822,0,0,0,106.048,85.377ZM61.7,83.83l-6.881-.263L68.628,62.28h.033a33.286,33.286,0,0,0,14.7,4.3L67.129,91.567,64.1,85.377A2.821,2.821,0,0,0,61.7,83.83ZM85.074,5.548A27.765,27.765,0,1,1,57.3,33.3,27.809,27.809,0,0,1,85.074,5.548Z"/><path class="b" d="M135.813,49.519a20.7,20.7,0,1,0,20.694,20.71A20.72,20.72,0,0,0,135.813,49.519Zm-15.146,20.71a15.146,15.146,0,1,1,15.146,15.146A15.159,15.159,0,0,1,120.667,70.229Z" transform="translate(-50.739 -36.908)"/></g></svg>