<svg xmlns="http://www.w3.org/2000/svg" width="50" height="50" viewBox="0 0 50 50"><defs><style>.a{opacity:0.8;}.b{fill:#fff;}</style></defs><g class="a"><path class="b" d="M50,25A25,25,0,1,0,25,50,25.027,25.027,0,0,0,50,25ZM3.5,25A21.5,21.5,0,1,1,25,46.5,21.522,21.522,0,0,1,3.5,25Z"/><path class="b" d="M211.386,163.768l-7.472-7.472a1.781,1.781,0,0,0-2.518,2.518l6.218,6.218L201.4,171.25a1.777,1.777,0,1,0,2.508,2.518l7.472-7.472A1.786,1.786,0,0,0,211.386,163.768Z" transform="translate(-180.466 -140.022)"/></g></svg>