<svg xmlns="http://www.w3.org/2000/svg" width="50" height="50" viewBox="0 0 50 50"><defs><style>.a{opacity:0.8;}.b{fill:#fff;}</style></defs><g class="a"><path class="b" d="M0,25A25,25,0,1,1,25,50,25.027,25.027,0,0,1,0,25Zm46.5,0A21.5,21.5,0,1,0,25,46.5,21.522,21.522,0,0,0,46.5,25Z"/><path class="b" d="M201.394,163.768l7.472-7.472a1.781,1.781,0,0,1,2.518,2.518l-6.218,6.218,6.218,6.218a1.777,1.777,0,1,1-2.508,2.518L201.4,166.3A1.786,1.786,0,0,1,201.394,163.768Z" transform="translate(-182.314 -140.022)"/></g></svg>