<svg xmlns="http://www.w3.org/2000/svg" width="50" height="48.663" viewBox="0 0 50 48.663"><defs><style>.a{fill:#fff;}</style></defs><path class="a" d="M36.2,0H13.8A13.633,13.633,0,0,0,0,13.429v21.8A13.633,13.633,0,0,0,13.8,48.663H36.2A13.633,13.633,0,0,0,50,35.234v-21.8A13.633,13.633,0,0,0,36.2,0Zm9.363,35.234A9.25,9.25,0,0,1,36.2,44.345H13.8a9.249,9.249,0,0,1-9.362-9.112v-21.8A9.25,9.25,0,0,1,13.8,4.318H36.2a9.25,9.25,0,0,1,9.362,9.112v21.8Z" transform="translate(0 0)"/><path class="a" d="M54.176,40.97c-7.283,0-13.208,5.625-13.208,12.539s5.925,12.539,13.208,12.539,13.208-5.625,13.208-12.539S61.459,40.97,54.176,40.97Zm0,20.76a8.232,8.232,0,1,1,8.66-8.221A8.459,8.459,0,0,1,54.176,61.73Z" transform="translate(-29.176 -29.177)"/><path class="a" d="M122.087,28.251a3.164,3.164,0,1,0,2.239.927A3.179,3.179,0,0,0,122.087,28.251Z" transform="translate(-83.609 -20.119)"/></svg>