<svg xmlns="http://www.w3.org/2000/svg" width="120.139" height="50" viewBox="0 0 120.139 50"><defs><style>.a,.b,.c{fill:#fff;}.b,.c{fill-rule:evenodd;}.c{opacity:0.8;}</style></defs><path class="a" d="M92.914,158.16h.121c.213,1.29.559,2.521.778,3.748h0a6.942,6.942,0,0,0,.448,1.29h0c.186.457.27.94.449,1.4h0c.345.888.733,1.736,1.141,2.58h0c.2.4.282.932.735,1.137h0a19,19,0,0,1-1.225-4.2h0c-.024-.332.017-.684,0-1.023h0a8.121,8.121,0,0,1-.082-2.121h0a8.6,8.6,0,0,1,.608-1.894h0c.267.164.168.638.205.984h0c.114,1.083.149,2.622.33,3.941h0a18.784,18.784,0,0,0,.53,2.423h0c.112.407.36.814.489,1.249h0a4.519,4.519,0,0,0,.858,2.084h0a15.006,15.006,0,0,1-.332-6.289h0a1.8,1.8,0,0,1,.559-1.106h0a4.069,4.069,0,0,1,.166,1.819h0c.03,3.02.186,6.121,1.434,8.218h0c.054.1.272.052.373.116h0c.932,1.618,2.087,3.354,3.058,5.073h0c.317.562.776,1.071,1.057,1.629h0c.28.553.446,1.157.737,1.7h0c.278.523.66,1.03.9,1.553h0a5.431,5.431,0,0,0,.449.986h0a18.3,18.3,0,0,1,1.384,2.082h0c.319.632.617,1.31.981,1.931h0c.356.61.675,1.29,1.059,1.815h0a4.413,4.413,0,0,0,1.261.984h0c.5.3.873.7,1.305.908h0a4.045,4.045,0,0,0,2.685-.039h0a15.39,15.39,0,0,1,1.749-.457h0a3.033,3.033,0,0,1,2.2.488h0c.675.118,1.385.3,1.589.872h0c.093.26,0,.593.123.872h0c-.153.332-.276.26-.244.606h0a4.368,4.368,0,0,0-1.22-.114h0c-.172.044-.3.208-.449.267h0c-.229.094-.505.092-.733.184h0a9.334,9.334,0,0,0-2.238,1.7h0a13.355,13.355,0,0,0,1.1.908h0a.887.887,0,0,1,.373.076h0a18.388,18.388,0,0,1,1.751.87h0c.086.057.114.173.2.227h0c.131.079.315.074.449.151h0c.4.24.766.608,1.179.87h0c.425.273.856.521,1.262.794h0a13.539,13.539,0,0,0,1.262.8h0c.462.24.981.369,1.425.643h0c.25.149.559.044.837.232h0c.263.184.466.457.8.531h0a5.8,5.8,0,0,1,1.885.643h0c.136.064,4.762.615,5.124,1.045h0c.045.053.186.052.315.05h0c.155,0,.308,0,.315.076h0c.015.16.308.149.474.085h0a1.161,1.161,0,0,1,.446-.039h0a1.754,1.754,0,0,0,.407-.02h0a48.027,48.027,0,0,1,5.328-.816v.825a24.108,24.108,0,0,1-3.491,1.984h0a1.887,1.887,0,0,1-.5.026h0c-.36,0-.781-.015-.9.157h0c-.065.09,1.193.4,1.1.492h0c-.172.162-1.119-.042-1.305-.087h0a.331.331,0,0,0-.075-.009h0c-.862,0-.679.171-.392.455h0c.373.378,1.1.346.891.474h0c-.7.431-2.292.228-2.939.345h0a.116.116,0,0,0-.079.046.113.113,0,0,0-.02.088h0c.065.295.7.439.449.577h0c-.841.462-2.862-1.054-3-1.056h0c-.218,0-.138.21-.1.424h0c.062.3.054.6-.912.3h0a21.217,21.217,0,0,1-2.256-1.146h0c-.147.315-.114.346.227.58h0c.228.155.056.474-.226.418h0a7.815,7.815,0,0,1-2.445-.794h0c-.218,1.106-1.781.251-2.359,0h0a3.438,3.438,0,0,1-1.628.418h0c-.228-.026-.412-.252-.612-.265h0c-.172-.011-.317.123-.528.153h0c-.656.085-1.583-.123-1.466-.645h0c-.285-.052-.287.245-.571.343h0a2.291,2.291,0,0,1-1.71-.225h0c-.975-.077-2.051-.059-2.564-.566h0a2.932,2.932,0,0,1-2.238-.416h0c-.172-.1-.416-.184-.53-.262h0c-.142-.107-.186-.295-.326-.381h0a2.976,2.976,0,0,1-.9-1.19h0a1.067,1.067,0,0,1-1.057-.606h0c-.052-.041-.114-.024-.186,0h0a.494.494,0,0,1-.216,0h0a3.909,3.909,0,0,0-1.915-.831h0a1.464,1.464,0,0,0-1.221-.792h0c-.067-.671.863-.737,1.382-.989h0c-.524.052-2.1.422-2.318-.223h0c-1.046.164-2.174.254-3.135.5h0a10.431,10.431,0,0,1-1.016,1.106h0a16.989,16.989,0,0,1-2.2,1.973h0c-.31.247-.763.822-1.137.872h0a1.565,1.565,0,0,1-1.059-.49h0c-.541.077-1.2.149-1.425-.225h0a3.445,3.445,0,0,1-1.384.076h0c-.186,0-.175-.184-.246-.3h0c-.522.035-1.771.219-1.952-.3h0a1,1,0,0,1-1.018-.3h0c-.338-.052-.725-.055-.854-.3h0a1.848,1.848,0,0,1,.2-.606h0c-.457.2-.8-.553-.164-.568h0c-.373-.184-.828-.516-.61-1.024h0c-.065-.184-.3-.2-.373-.378h0c.073-.639.7-.767,1.016-1.176h0c-.186-.212-.559-.31-.61-.566h0c-.127-.54.627-.693.932-.988h0c-.17-.291-.686-.553-.612-.908h0c.06-.278.52-.269.733-.492h0a2.264,2.264,0,0,1-.571-1.023h0c.466-.345,1.136-.136,1.708-.077h0c2.066.212,4.662.315,6.922.409h0c.746.031,1.516.077,1.829-.341h0c0-.122-.091-.168-.082-.3h0c-.97.112-1.941-.033-1.833-.872h0c.028-.208.373-.387.373-.6h0c0-.241-.423-.418-.244-.757h0c-.071-.028-.11.063-.164.151h0c-.052.083-.119.168-.241.153h0a1.173,1.173,0,0,1-.373-.722h0c-.77-.039-.916-1.056-.451-1.513h0c-.99.3-1.865-.269-1.587-1.135h0c-.4-.227-.951-.5-.776-1.139h0c-.211-.221-.584-.26-.77-.6h0c-.086-.155-.022-.4-.121-.6h0c-.112-.232-.487-.352-.612-.568h0c-.054-.094,0-.184-.041-.3h0c-.138-.348-.6-.481-.653-.684h0c-.125-.461.28-.737.448-1.06h0c-.186-.2-.259-.492-.449-.682h0a7.022,7.022,0,0,1-1.016-.227h0c-.011-.439-1.048-.816-.246-1.106h0c-.559-.1-.64-.643-.854-1.061h0c0-.212.209-.232.2-.453h0c-.3-.466-1.274-.947-.692-1.553h0c-.214-.389-.476-.737-.655-1.059h0a1.956,1.956,0,0,1,.528-.759h0c-.173-.339-.541-.767-.246-1.212h0c-.421-.332-1.305-1.106-.571-1.7h0c-.4-.463-1.367-1.026-.733-1.778h0c.242-.079.668.015.854-.114h0c-.082-.369-.914-.553-1.141-.984h0c-.162-.311-.464-.634-.373-1.061h0a.883.883,0,0,1,1.264-.38h0c.186-.334-.239-.47-.407-.643h0a3.888,3.888,0,0,1-1.1-1.933h0c.8-.392,1.2.507,1.952.531h0a5.014,5.014,0,0,0-1.139-1.474h0c-.323-.7-1.234-1.047-1.305-1.854h0a13.922,13.922,0,0,1,2.486,1.55h0c.776.553,1.565,1.087,2.322,1.658h0c.16-.564-.386-.938-.7-1.29h0a15.332,15.332,0,0,1-1.751-2.384h0a4.819,4.819,0,0,1-1.143-2.8h0c.306.094.42.369.572.6h0c1.73,1.7,3.17,3.674,4.928,5.344h0c.045-.755-.472-1.236-.858-1.892h0a14.658,14.658,0,0,1-2.161-4.923h0a2.43,2.43,0,0,1,.08-1.327h0c.442.171.386.805.735,1.061h0c.559,1.529,1.449,2.764,2.12,4.2h0a24.726,24.726,0,0,0,2.036,2.764h0c.071-.566-.313-.982-.528-1.474h0c-.9-2.051-1.982-5.132-1.19-7.954h0c0-.041.08-.026.082-.076ZM119,192.8c.39-.394,1.742-.278,1.71.416h0A4.518,4.518,0,0,0,119,192.8Z" transform="translate(-85.88 -158.147)"/><path class="b" d="M362.488,400l-.524.364L361.1,402.6a.705.705,0,0,0,.168-.026h0a25.838,25.838,0,0,0,4.565-2.8h0a2.08,2.08,0,0,0-.595-.063h0A20.946,20.946,0,0,0,362.488,400Zm-1.678,3.31a.265.265,0,0,0,.138-.052h0c.019-.019-.017-.047-.088-.08h0Z" transform="translate(-309.543 -355.256)"/><path class="b" d="M344.285,402.418a1.737,1.737,0,0,1-.407.021h0a1.147,1.147,0,0,0-.446.039h0c-.166.065-.459.076-.474-.086h0c0-.08-.16-.078-.315-.076h0c-.134,0-.27,0-.315-.05h0a.373.373,0,0,0-.119-.084l1.348,4.071a3.042,3.042,0,0,0,1.376-.291h0c.207-.129-.513-.1-.891-.479h0c-.287-.287-.47-.464.392-.461h0a.331.331,0,0,1,.075.009h0a4.52,4.52,0,0,0,1.171.14h0l.05-.132c-.274-.131-1.063-.345-1.011-.418h0c.123-.173.544-.166.9-.159h.332l.869-2.238-.349-.224c-.979.166-1.833.336-2.191.414Z" transform="translate(-294.412 -357.118)"/><path class="b" d="M320.57,399.669l3.963,4.179c.358-.035.893-.015,1.421-.037l-1.348-4.065a19.258,19.258,0,0,0-3.513-.746l-.522.668Z" transform="translate(-276.807 -354.677)"/><path class="b" d="M299.2,406.5a10.47,10.47,0,0,0,1.9.526h0c.282.056.453-.267.226-.423h0c-.341-.237-.373-.268-.228-.587h0a21.476,21.476,0,0,0,2.256,1.16h0c.966.295.973,0,.912-.308h0c-.043-.216-.121-.433.1-.429h0c.134,0,2.156,1.537,3,1.068h0c.25-.14-.384-.285-.449-.584h0a.116.116,0,0,1,.1-.136h0c.043,0,.09-.015.142-.02h0l-3.962-4.179Z" transform="translate(-259.422 -357.598)"/><path class="c" d="M279,396.594a4.637,4.637,0,0,0,.863-.339h0c.578.25,2.141,1.119,2.359,0h0a3.553,3.553,0,0,0,.546.278h0l-.8-1.3-2.142-4.9Z" transform="translate(-242.989 -347.624)"/><path class="b" d="M260,341.438l1.087.213a.487.487,0,0,1,.138-.063h0a4.326,4.326,0,0,1,1.22.116h0c-.032-.351.091-.278.244-.613-.123-.282-.03-.619-.123-.882h0a.917.917,0,0,0-.3-.418Zm.653-.462c.392-.4,1.744-.282,1.712.421h0A4.477,4.477,0,0,0,260.653,340.976Z" transform="translate(-227.532 -306.326)"/><path class="b" d="M260.295,349.165a2.8,2.8,0,0,0,.474-.116h0a2.434,2.434,0,0,0,.311-.207h0L260,348.63l.3.535Zm4.076,7.241.932-.725c-.41-.224-.815-.511-1.2-.77h0c-.293-.2-.6-.386-.908-.578h0Z" transform="translate(-227.532 -313.7)"/><path class="b" d="M283.44,387.157l6.924,2.286.019-.746c-.559-.082-.951-.14-.988-.158h0a5.75,5.75,0,0,0-1.885-.651h0c-.338-.075-.541-.354-.8-.537h0c-.272-.186-.587-.084-.837-.235h0c-.444-.27-.962-.408-1.425-.651h0l-.067-.035h0l-.932.725Z" transform="translate(-246.601 -344.451)"/><path class="b" d="M259.162,337.346l2.266-1.648a2.958,2.958,0,0,0-1.289-.464h0a1.952,1.952,0,0,0-1.169-.474l.187,2.586Z" transform="translate(-226.694 -302.228)"/><path class="b" d="M222.88,354.043l11.293,2.363-1.167-2.074c-.117-.073-.237-.149-.354-.226h0c-.412-.265-.776-.638-1.178-.88h0c-.134-.078-.319-.073-.449-.153h0c-.09-.054-.117-.172-.2-.229h0a17.076,17.076,0,0,0-1.751-.88h0a.877.877,0,0,0-.373-.076h0a13.374,13.374,0,0,1-1.1-.919h0a9.1,9.1,0,0,1,2.238-1.725h0a1.227,1.227,0,0,1,.259-.078h0l-.293-.535-6.914,5.408Z" transform="translate(-197.333 -313.7)"/><path class="c" d="M224.873,385.158a1.587,1.587,0,0,0,.255-.037h0c.513.513,1.589.494,2.564.573h0a1.911,1.911,0,0,0,.733.267h0l5.747-5.967L222.88,377.63Z" transform="translate(-197.333 -337.292)"/><path class="c" d="M252.62,396.3a2.018,2.018,0,0,0,.977-.039h0c.283-.1.285-.4.571-.347h0c-.117.528.809.746,1.468.653h0c.209-.03.354-.166.526-.155h0c.2.013.384.242.612.269h0a2.126,2.126,0,0,0,.765-.084h0l.83-6.264Z" transform="translate(-221.528 -347.624)"/><path class="b" d="M210,332.893l9.324.809-.186-2.586a4.183,4.183,0,0,0-1.029-.021h0a15.239,15.239,0,0,0-1.749.462h0a3.988,3.988,0,0,1-2.685.039h0c-.433-.207-.8-.612-1.305-.919h0c-.211-.131-.42-.261-.61-.4h0l-1.747,2.611Z" transform="translate(-186.855 -298.58)"/><path class="b" d="M210,331.55l1.747-2.611a4.017,4.017,0,0,1-.39-.31h0Z" transform="translate(-186.855 -297.229)"/><path class="a" d="M124.12,186.13l2.4,6.221,6.914-5.411Z" transform="translate(-100.977 -151.879)"/><path class="b" d="M204.175,310.773l1.358-2.922a2.055,2.055,0,0,1-.261-.289h0c-.384-.531-.7-1.22-1.059-1.837h0c-.364-.628-.662-1.315-.981-1.954h0a7.25,7.25,0,0,0-.392-.681h0Z" transform="translate(-181.03 -276.43)"/><path class="c" d="M200,381.628a2.714,2.714,0,0,1,1.065.608h0a.488.488,0,0,0,.216,0h0c.076-.017.138-.034.186,0h0a1.065,1.065,0,0,0,1.057.613h0a3.008,3.008,0,0,0,.9,1.2h0c.145.088.186.278.326.386h0c.114.082.358.16.53.265h0a2.847,2.847,0,0,0,1.982.453h0l-1.993-7.528Z" transform="translate(-178.72 -337.292)"/><path class="b" d="M161.29,274.53l9.083,7.362-1.335-7.683c-.326-.511-.712-1.024-.992-1.427h0a5.528,5.528,0,0,1-.449-1h0c-.237-.53-.619-1.042-.9-1.572h0c-.291-.559-.457-1.167-.737-1.723h0a7,7,0,0,0-.571-.9Z" transform="translate(-147.228 -247.509)"/><path class="b" d="M162.389,260.579l-1.119,7.248,4.1-6.94a8.674,8.674,0,0,1-.487-.746h0q-.22-.393-.453-.791l-2.051,1.231Z" transform="translate(-147.212 -240.737)"/><path class="c" d="M103.97,191.989l6.161.362-2.4-6.221Z" transform="translate(-84.584 -151.879)"/><path class="c" d="M189.886,378.136c.457-.028.932-.123,1.173-.147h0a6.43,6.43,0,0,0-1.169.5h0v.55a1.355,1.355,0,0,1,1,.755h0a8.543,8.543,0,0,1,.85.233l4.27-3.992-6.154-.373.028,2.467Z" transform="translate(-170.471 -335.69)"/><path class="c" d="M80.736,159.871l3.757-5.859L75.41,146.65Z" transform="translate(-61.35 -119.73)"/><path class="c" d="M147.825,314.512a2.951,2.951,0,0,0,1.367.1h0c-.009.138.075.186.082.308h0c-.283.384-.949.382-1.626.354h0l-.138.6,7.893,2.161L150.08,304.81l-2.254,9.7Z" transform="translate(-136.018 -277.89)"/><path class="c" d="M183.47,377.823l.071-.009h0c.114.349.619.4,1.145.373h0l-.028-2.467Zm1.007,1.218c.075.013.147.03.218.047v-.55a.541.541,0,0,0-.213.5Z" transform="translate(-165.272 -335.738)"/><path class="b" d="M167.27,250.89l2.051-1.231c-.434-.746-.891-1.492-1.339-2.219h0l-.707,3.45Z" transform="translate(-152.093 -230.991)"/><path class="c" d="M149.628,370.459c.16-.16.319-.326.477-.5h0a9.245,9.245,0,0,0,1.016-1.119h0c.932-.241,2.038-.332,3.064-.492h0l1.188-2.1-7.893-2.161Z" transform="translate(-135.993 -326.269)"/><path class="b" d="M127.069,178.663c.024.209.048.421.058.634h0c.019.343-.022.7,0,1.035h0a10.576,10.576,0,0,0,.755,2.922h0l1.453,1.162c-.039-.157-.08-.317-.129-.481h0c-.129-.44-.373-.852-.489-1.264h0a19.209,19.209,0,0,1-.531-2.452h0c-.1-.7-.151-1.471-.2-2.2Zm2.665,1.016a14.876,14.876,0,0,0,.05,5.093h0l1.05.837a32.28,32.28,0,0,1-.373-5.2h0a4.084,4.084,0,0,0-.166-1.84h0A1.8,1.8,0,0,0,129.734,179.68Zm-4.8.476q.162.53.345,1.016h0l2.051,1.633c-.3-.643-.582-1.305-.841-1.973h0c-.186-.468-.272-.957-.449-1.419h0v-.019h0Z" transform="translate(-117.648 -174.304)"/><path class="b" d="M165.61,242.974l.707-3.45c-.373-.615-.746-1.221-1.087-1.814Z" transform="translate(-150.433 -223.06)"/><path class="c" d="M128,367.316l4.449,4.363a17.515,17.515,0,0,0,1.339-1.188h0l-2.148-6.372Z" transform="translate(-120.146 -326.301)"/><path class="b" d="M117.44,230.2l9.292,4.168-.373-5.264c-.062-.1-.119-.207-.186-.31h0c-.093-.065-.311-.013-.373-.117h0a7.647,7.647,0,0,1-.682-1.546Z" transform="translate(-111.555 -214.434)"/><path class="c" d="M39.745,96.846,40.862,89.6,31.57,85.43Z" transform="translate(-25.685 -69.731)"/><path class="c" d="M17.76,90.509l10.75,6.336L20.335,85.43Z" transform="translate(-14.45 -69.731)"/><path class="c" d="M124.19,307.575c.2.291.531.334.733.543h0c-.175.645.373.923.776,1.152h0c-.278.876.6,1.454,1.587,1.149h0c-.464.462-.319,1.492.451,1.531h0a1.191,1.191,0,0,0,.373.731h0c.121.015.186-.071.241-.155h0c.054-.09.093-.187.164-.153h0c-.186.343.241.522.244.766h0c0,.22-.338.4-.373.612h0a.688.688,0,0,0,.466.785h0l2.254-9.7Zm4.349,8.319.138-.6-.2-.009h0l-.66-.028h0Z" transform="translate(-117.046 -277.891)"/><path class="c" d="M113.3,385.857a5.175,5.175,0,0,0,1.557,0h0c.071.11.062.3.246.3h0a3.406,3.406,0,0,0,1.384-.076h0c.224.373.884.306,1.425.227h0a1.557,1.557,0,0,0,1.059.5h0c.373-.05.828-.632,1.137-.882h0l.373-.306h0l-4.44-4.36Z" transform="translate(-108.187 -340.245)"/><path class="b" d="M119.688,196.192c.214.5.6.923.528,1.492h0a23.622,23.622,0,0,1-1.954-2.678h0l-.186,1.958a1.617,1.617,0,0,1,.186.835h0c-.08-.075-.159-.151-.239-.229h0l-.593,6.422,7.685-3.069a11.982,11.982,0,0,1-.384-1.568h0l-1.041-.834a12.768,12.768,0,0,0,.282,1.272h0a3.4,3.4,0,0,1-.729-1.628h0L121.79,197c.186.494.362.944.47,1.333h0c-.453-.207-.539-.746-.735-1.151h0c-.1-.209-.2-.421-.3-.632h0l-2.051-1.633C119.341,195.375,119.518,195.8,119.688,196.192Z" transform="translate(-111.547 -188.052)"/><path class="b" d="M123.087,166.364c.1.438.211.867.338,1.279h0l1.091-.761a6.743,6.743,0,0,1-.44-1.285h0c-.173-.973-.421-1.954-.623-2.957l-.373,3.729Zm2.452-1.725a4.492,4.492,0,0,0,.024,1.512h0l.921-.643c-.043-.651-.078-1.272-.132-1.79h0c-.037-.351.062-.83-.205-1h0a8.776,8.776,0,0,0-.608,1.917Z" transform="translate(-116.143 -161.792)"/><path class="c" d="M103.678,272.6a2.746,2.746,0,0,1,.4.44h0c0,.224-.2.244-.2.459h0c.214.423.3.97.854,1.074h0c-.8.285.235.668.246,1.119h0a6.944,6.944,0,0,0,1.016.229h0c.186.186.272.483.449.69h0c-.168.324-.572.606-.448,1.072h0c.054.205.515.339.653.692h0c.048.125-.013.211.041.306h0c.125.218.5.339.612.574h0c.1.211.035.455.121.612h0c.013.024.026.047.041.069l6.918-2.741-10.752-6.34.048,1.747Z" transform="translate(-100.32 -250.127)"/><path class="b" d="M120.507,363.476l3.64-3.2-.725-.636c-1.52-.063-3.142-.136-4.632-.244Z" transform="translate(-112.653 -322.346)"/><path class="b" d="M98.218,158.1c0,.05-.073.035-.082.076h0a9.27,9.27,0,0,0,0,4.475h0l.373-3.729c-.056-.276-.108-.559-.155-.835h-.121Zm-3.336,2.84a9.764,9.764,0,0,0,.789,2.463h0l1.716.656a28.262,28.262,0,0,1-1.689-3.388h0c-.349-.259-.293-.9-.735-1.074h0A2.487,2.487,0,0,0,94.882,160.943Zm-2.478,1.21.513.2a.967.967,0,0,0-.517-.52h0v.324Z" transform="translate(-91.184 -158.09)"/><path class="c" d="M97.771,382.631a.3.3,0,0,1,.052.086h0c-.218.515.241.848.61,1.037h0c-.632,0-.293.772.164.574h0a1.885,1.885,0,0,0-.2.613h0c.129.25.517.254.854.306h0a1,1,0,0,0,1.018.306h0a.522.522,0,0,0,.4.3l2.741-4.6Z" transform="translate(-95.55 -340.245)"/><path class="c" d="M97,358.2a2.3,2.3,0,0,0,.571,1.035h0c-.213.226-.673.216-.733.5h0c-.075.358.442.625.612.919h0c-.308.3-1.061.453-.932,1h0c.06.259.416.358.61.573h0c-.321.414-.944.543-1.016,1.19h0c.056.145.22.186.315.3h0l5.631-1.371-1.717-4.076c-.559-.041-1.119-.088-1.63-.142h0c-.328-.034-.686-.117-1.022-.117a1.119,1.119,0,0,0-.686.2Z" transform="translate(-94.202 -321.224)"/><path class="b" d="M92.171,192.122c.241.433.489.85.724,1.261h0c.228.39.5.72.675,1.08h0l.186-1.958-.082-.119h0c-.086-.186-.175-.373-.265-.545Zm-2.435.559a16.081,16.081,0,0,0,1.41,1.855h0c.31.352.856.731.7,1.305h0c-.757-.584-1.546-1.119-2.322-1.678h0a17.8,17.8,0,0,0-1.548-1.07h0l-.671.153c.315.42.817.746,1.039,1.225h0a5.165,5.165,0,0,1,1.139,1.492h0c-.746-.024-1.151-.932-1.952-.537h0a3.947,3.947,0,0,0,1.1,1.956h0c.168.175.587.313.407.651h0a.992.992,0,0,0-.287-.1h0L92.92,201.5l.593-6.422c-.863-.85-1.652-1.773-2.443-2.695h0Z" transform="translate(-87.035 -185.547)"/><path class="b" d="M88.255,182.4q.165.28.341.559h0l1.335-.306c-.727-.847-1.456-1.691-2.238-2.476h0l-.056-.091h0l-.513-.2A5.507,5.507,0,0,0,88.255,182.4Zm2.777,0,1.233-.282L92.1,181.8h0l-1.716-.656C90.584,181.576,90.8,181.993,91.032,182.4Zm-4.871,1.119.671-.153a8.018,8.018,0,0,0-.932-.5,1.246,1.246,0,0,0,.261.645Z" transform="translate(-85.896 -175.825)"/><path class="b" d="M101.379,271.187c.052.088.1.177.155.269h0c-.4.425-.06.791.291,1.132h0l-.049-1.747Z" transform="translate(-98.466 -250.074)"/><path class="c" d="M89.748,224.882c-.1.433.205.759.373,1.074h0c.227.436,1.059.628,1.141,1h0c-.186.131-.612.035-.854.116h0c-.634.761.336,1.331.733,1.8h0c-.725.6.149,1.387.571,1.723h0c-.295.451.073.884.246,1.227h0c-.048.06-.1.116-.151.172h0l.52,1.054L94.9,227.96,90.723,224.4a.974.974,0,0,0-.186-.019h0a.777.777,0,0,0-.783.5Z" transform="translate(-89.012 -212.196)"/><path class="b" d="M98.82,265.787c.136.252.323.517.5.8h0l.4-.347-.52-1.054A1.371,1.371,0,0,0,98.82,265.787Z" transform="translate(-96.407 -245.463)"/><path class="c" d="M17.76,90.509l10.75,6.336L20.335,85.43Z" transform="translate(-14.45 -69.731)"/><path class="c" d="M224.419,383.329c.082,0,1.011-.116,3.274-.375a15.962,15.962,0,0,0,3.323.375l3.157-3.337L222.88,377.63Z" transform="translate(-197.333 -337.292)"/><path class="a" d="M350.657,233.73h-2.942v6.6h-2.2v-15.4h6.058q3.849,0,3.851,3.851v1.106q0,3.457-2.581,3.806l2.581,6.64h-2.208Zm-2.942-6.6v4.4h3.854a1.455,1.455,0,0,0,1.647-1.647v-1.106a1.454,1.454,0,0,0-1.647-1.647Zm18.7,4.4v2.2h-6.6v4.4h6.6v2.2h-8.8v-15.4h8.8v2.2h-6.6v4.4Zm8.257-6.6q3.851,0,3.851,3.851v7.7q0,3.851-3.851,3.851h-6.055v-15.4Zm1.647,3.851a1.454,1.454,0,0,0-1.647-1.647h-3.851v11h3.851a1.456,1.456,0,0,0,1.647-1.648v-7.7Zm4.4,11.552v-15.4h2.2v7.485l6.049-7.485h2.752l-6.055,7.7,6.055,7.7h-2.752l-6.049-7.478v7.478Zm14.86-15.4v15.4h-2.21v-15.4Zm12.1,0v2.2H403.82v13.2h-2.2v-13.2h-3.851v-2.2Zm11,6.6v2.2h-6.607v4.4h6.6v2.2h-8.8v-15.4h8.8v2.2h-6.6v4.4Z" transform="translate(-298.539 -207.395)"/></svg>