<svg xmlns="http://www.w3.org/2000/svg" xmlns:xlink="http://www.w3.org/1999/xlink" width="640.352" height="99.023" viewBox="0 0 640.352 99.023"><defs><style>.a{opacity:0.8;fill:url(#a);}</style><linearGradient id="a" x1="1.322" y1="0.628" x2="-0.341" y2="0.617" gradientUnits="objectBoundingBox"><stop offset="0" stop-color="#cc30b4"/><stop offset="1" stop-color="#2b0f86"/></linearGradient></defs><path class="a" d="M-276.218-13.965q11.616,0,18.44-8.569t6.824-24.375q0-15.742-6.824-24.343t-18.44-8.6q-11.616,0-18.535,8.569t-6.919,24.375q0,15.806,6.919,24.375T-276.218-13.965ZM-231.4-46.909q0,25.2-14.155,38.594Q-256.16,2.6-276.218,2.6T-306.877-8.315Q-321.1-21.709-321.1-46.909q0-25.708,14.219-38.594,10.6-10.918,30.659-10.918T-245.559-85.5Q-231.4-72.617-231.4-46.909Zm31.484-22.28v41.7q0,5.9,1.4,8.887,2.476,5.269,9.712,5.269,9.268,0,12.7-7.49a27.115,27.115,0,0,0,1.777-10.728V-69.189h18.345V0h-17.583V-9.775q-.254.317-1.27,1.9a12.743,12.743,0,0,1-2.412,2.793,25.192,25.192,0,0,1-8.22,5.205,28.015,28.015,0,0,1-9.3,1.4q-15.361,0-20.693-11.045-2.983-6.094-2.983-17.964v-41.7Zm98.96-1.65q.508,0,.857.032t1.555.1v18.535q-1.714-.19-3.047-.254t-2.158-.063q-10.918,0-14.663,7.109-2.095,4-2.095,12.314V0h-18.218V-69.189h17.266v12.061q4.189-6.919,7.3-9.458Q-109.084-70.84-100.959-70.84ZM4.412-93.564H24.724L-7.2,0H-25.676L-57.288-93.564H-36.4l20.313,71.03ZM51.194-77.441H32.849V-94.136H51.194ZM32.849-69.189H51.194V0H32.849Zm49.956,47.1q.571,4.824,2.476,6.855,3.364,3.618,12.441,3.618A18.964,18.964,0,0,0,106.2-13.2a5.085,5.085,0,0,0,3.142-4.761A5.133,5.133,0,0,0,106.8-22.6q-2.539-1.587-18.853-5.459-11.743-2.92-16.567-7.3Q66.555-39.673,66.555-47.8A21.579,21.579,0,0,1,74.077-64.27q7.522-6.887,21.169-6.887,12.949,0,21.106,5.173t9.363,17.869H107.625a10.7,10.7,0,0,0-1.968-5.522q-2.983-3.682-10.156-3.682-5.9,0-8.411,1.841a5.3,5.3,0,0,0-2.507,4.316,4.724,4.724,0,0,0,2.666,4.507q2.666,1.46,18.853,5.015,10.791,2.539,16.187,7.681a17.438,17.438,0,0,1,5.332,13.013,21.026,21.026,0,0,1-7.649,16.79q-7.649,6.506-23.645,6.506-16.313,0-24.089-6.887A22.406,22.406,0,0,1,64.46-22.09Zm76.807-55.352H141.267V-94.136h18.345Zm-18.345,8.252h18.345V0H141.267Zm66.9,56.431q7.935,0,12.188-5.649t4.253-16.06q0-10.41-4.253-16.028t-12.187-5.618q-7.935,0-12.219,5.618t-4.285,16.028q0,10.41,4.285,16.06T208.171-12.759Zm35.42-21.709q0,15.234-8.76,26.057t-26.6,10.823q-17.837,0-26.6-10.823t-8.76-26.057a40.375,40.375,0,0,1,8.76-25.962q8.76-10.981,26.6-10.981t26.6,10.981A40.375,40.375,0,0,1,243.591-34.468ZM294.88-70.84q10.728,0,17.551,5.618t6.824,18.63V0H300.72V-42.085q0-5.459-1.46-8.379Q296.594-55.8,289.1-55.8q-9.2,0-12.632,7.808a26.818,26.818,0,0,0-1.777,10.537V0H256.667V-69.062h17.456V-58.97a30.711,30.711,0,0,1,6.6-7.681Q286.311-70.84,294.88-70.84Z" transform="translate(321.096 96.421)"/></svg>