<svg xmlns="http://www.w3.org/2000/svg" xmlns:xlink="http://www.w3.org/1999/xlink" width="586.968" height="95.85" viewBox="0 0 586.968 95.85"><defs><style>.a{opacity:0.8;fill:url(#a);}</style><linearGradient id="a" x1="1.322" y1="0.628" x2="-0.341" y2="0.617" gradientUnits="objectBoundingBox"><stop offset="0" stop-color="#00c6c6"/><stop offset="1" stop-color="#3e35aa"/></linearGradient></defs><path class="a" d="M-220.74-93.564V-77h-27.993V0h-19.678V-77h-28.12V-93.564Zm48.115,22.6a29.538,29.538,0,0,1,11.648,2.222,20.369,20.369,0,0,1,8.6,6.792,18.047,18.047,0,0,1,3.491,7.966,98.093,98.093,0,0,1,.635,13.362V0h-18.472V-42.085a18.51,18.51,0,0,0-1.9-9.014q-2.476-4.824-9.395-4.824-7.173,0-10.886,4.792t-3.713,13.679V0h-18.027V-93.247h18.027v33.071a22.182,22.182,0,0,1,9.109-8.411A25.744,25.744,0,0,1-172.625-70.967Zm68.555,14.854q-6.284,0-9.744,3.936t-4.348,10.664h28.12q-.444-7.173-4.348-10.886A13.5,13.5,0,0,0-104.07-56.113Zm0-14.917a36.261,36.261,0,0,1,15.552,3.237,27.243,27.243,0,0,1,11.426,10.22,34.869,34.869,0,0,1,5.269,14.282,92.237,92.237,0,0,1,.571,13.711h-47.354q.381,10.41,6.538,14.6a15.4,15.4,0,0,0,9.014,2.6,12.972,12.972,0,0,0,9.077-3.174,15.074,15.074,0,0,0,3.364-4.761h18.472q-.7,6.157-6.411,12.5Q-87.439,2.285-103.435,2.285a35.088,35.088,0,0,1-23.3-8.506q-10.093-8.506-10.093-27.676,0-17.964,9.109-27.549T-104.07-71.03ZM46.5-93.564V-77H18.5V0H-1.174V-77h-28.12V-93.564ZM74.172-56.113q-6.284,0-9.744,3.936T60.081-41.514H88.2q-.444-7.173-4.348-10.886A13.5,13.5,0,0,0,74.172-56.113Zm0-14.917a36.261,36.261,0,0,1,15.552,3.237,27.243,27.243,0,0,1,11.426,10.22,34.869,34.869,0,0,1,5.269,14.282,92.237,92.237,0,0,1,.571,13.711H59.636q.381,10.41,6.538,14.6a15.4,15.4,0,0,0,9.014,2.6,12.972,12.972,0,0,0,9.077-3.174,15.074,15.074,0,0,0,3.364-4.761H106.1q-.7,6.157-6.411,12.5Q90.8,2.285,74.807,2.285a35.088,35.088,0,0,1-23.3-8.506Q41.418-14.727,41.418-33.9q0-17.964,9.109-27.549T74.172-71.03Zm83.154,37.388a19.659,19.659,0,0,1-3.459,1.746,28.931,28.931,0,0,1-4.792,1.238l-4.062.762a26.233,26.233,0,0,0-8.188,2.476,8.3,8.3,0,0,0-4.189,7.681q0,4.634,2.571,6.7a9.674,9.674,0,0,0,6.252,2.063,18.425,18.425,0,0,0,10.759-3.428q4.919-3.428,5.11-12.5Zm-10.981-8.442a28.237,28.237,0,0,0,7.173-1.587q3.872-1.65,3.872-5.142,0-4.253-2.952-5.872T145.774-56.3q-6.411,0-9.077,3.174a13.192,13.192,0,0,0-2.539,6.348H116.7q.571-9.077,5.078-14.917,7.173-9.141,24.629-9.141a43.757,43.757,0,0,1,20.186,4.507q8.823,4.507,8.823,17.012v31.738q0,3.3.127,8,.19,3.555,1.079,4.824a6.486,6.486,0,0,0,2.666,2.095V0H159.612a20.151,20.151,0,0,1-1.143-3.936q-.317-1.841-.508-4.189a37.169,37.169,0,0,1-8.633,6.919,25.967,25.967,0,0,1-13.2,3.364q-9.395,0-15.52-5.364t-6.125-15.2q0-12.759,9.839-18.472,5.4-3.11,15.869-4.443ZM268.792-70.713a24.084,24.084,0,0,1,9.014,1.777,20.109,20.109,0,0,1,8.062,6.221,19.876,19.876,0,0,1,3.936,8.887,61.422,61.422,0,0,1,.635,10.22L290.31,0H271.775V-44.053a14.459,14.459,0,0,0-1.27-6.475q-2.412-4.824-8.887-4.824-7.49,0-10.347,6.221a19.535,19.535,0,0,0-1.46,7.935V0H231.594V-41.2q0-6.157-1.27-8.95-2.285-5.015-8.95-5.015-7.744,0-10.41,5.015-1.46,2.856-1.46,8.506V0H191.16V-69.062h17.583V-58.97a29.114,29.114,0,0,1,6.348-7.681q5.269-4.063,13.647-4.062,7.935,0,12.822,3.491a20.308,20.308,0,0,1,5.967,8.315,23,23,0,0,1,8.823-8.95A26.925,26.925,0,0,1,268.792-70.713Z" transform="translate(296.531 93.564)"/></svg>